<svg width="159" height="48" viewBox="0 0 159 48" fill="none" xmlns="http://www.w3.org/2000/svg">
<path d="M55.9318 24.2841H48.7159C48.678 23.839 48.5218 23.4555 48.2472 23.1335C47.9725 22.8116 47.6174 22.5653 47.1818 22.3949C46.7557 22.215 46.2822 22.125 45.7614 22.125C45.089 22.125 44.5114 22.2481 44.0284 22.4943C43.5455 22.7405 43.3087 23.0909 43.3182 23.5455C43.3087 23.8674 43.446 24.1657 43.7301 24.4403C44.0237 24.715 44.5871 24.928 45.4205 25.0795L49.8523 25.875C52.0871 26.2822 53.7491 26.9687 54.8381 27.9347C55.9366 28.8911 56.4905 30.1742 56.5 31.7841C56.4905 33.3371 56.0265 34.6866 55.108 35.8324C54.1989 36.9687 52.9536 37.8494 51.3722 38.4744C49.8002 39.09 48.0057 39.3977 45.9886 39.3977C42.6553 39.3977 40.0464 38.7159 38.1619 37.3523C36.2869 35.9886 35.2405 34.1894 35.0227 31.9545H42.8068C42.911 32.6458 43.2519 33.1809 43.8295 33.5597C44.4167 33.929 45.1553 34.1136 46.0455 34.1136C46.7652 34.1136 47.357 33.9905 47.821 33.7443C48.2945 33.4981 48.536 33.1477 48.5455 32.6932C48.536 32.2765 48.3277 31.9451 47.9205 31.6989C47.5227 31.4527 46.8977 31.2538 46.0455 31.1023L42.1818 30.4205C39.9564 30.0322 38.2898 29.2936 37.1818 28.2045C36.0739 27.1155 35.5246 25.714 35.5341 24C35.5246 22.4848 35.9223 21.2017 36.7273 20.1506C37.5417 19.09 38.7017 18.285 40.2074 17.7358C41.7225 17.1771 43.517 16.8977 45.5909 16.8977C48.7443 16.8977 51.2301 17.5511 53.0483 18.858C54.8759 20.1648 55.8371 21.9735 55.9318 24.2841ZM67.3452 26.7273V39H59.5043V9.90909H67.0611V21.3295H67.2884C67.7808 19.9375 68.5999 18.8532 69.7457 18.0767C70.8916 17.2907 72.2694 16.8977 73.8793 16.8977C75.4228 16.8977 76.7628 17.2481 77.8991 17.9489C79.045 18.6496 79.9304 19.6155 80.5554 20.8466C81.1899 22.0777 81.5024 23.4886 81.4929 25.0795V39H73.652V26.7273C73.6615 25.6477 73.3916 24.8002 72.8423 24.1847C72.3026 23.5691 71.5308 23.2614 70.527 23.2614C69.8925 23.2614 69.3338 23.4034 68.8509 23.6875C68.3774 23.9621 68.008 24.3598 67.7429 24.8807C67.4872 25.392 67.3546 26.0076 67.3452 26.7273ZM95.875 39.3977C93.5076 39.3977 91.4811 38.929 89.7955 37.9915C88.1098 37.0445 86.8172 35.7282 85.9176 34.0426C85.018 32.3475 84.5682 30.3826 84.5682 28.1477C84.5682 25.9129 85.018 23.9527 85.9176 22.267C86.8172 20.572 88.1098 19.2557 89.7955 18.3182C91.4811 17.3712 93.5076 16.8977 95.875 16.8977C98.2424 16.8977 100.269 17.3712 101.955 18.3182C103.64 19.2557 104.933 20.572 105.832 22.267C106.732 23.9527 107.182 25.9129 107.182 28.1477C107.182 30.3826 106.732 32.3475 105.832 34.0426C104.933 35.7282 103.64 37.0445 101.955 37.9915C100.269 38.929 98.2424 39.3977 95.875 39.3977ZM95.9318 33.6023C96.5947 33.6023 97.1676 33.3797 97.6506 32.9347C98.1335 32.4896 98.5076 31.8551 98.7727 31.0312C99.0379 30.2074 99.1705 29.2273 99.1705 28.0909C99.1705 26.9451 99.0379 25.965 98.7727 25.1506C98.5076 24.3267 98.1335 23.6922 97.6506 23.2472C97.1676 22.8021 96.5947 22.5795 95.9318 22.5795C95.2311 22.5795 94.6297 22.8021 94.1278 23.2472C93.6259 23.6922 93.2424 24.3267 92.9773 25.1506C92.7121 25.965 92.5795 26.9451 92.5795 28.0909C92.5795 29.2273 92.7121 30.2074 92.9773 31.0312C93.2424 31.8551 93.6259 32.4896 94.1278 32.9347C94.6297 33.3797 95.2311 33.6023 95.9318 33.6023ZM110.364 47.1818V17.1818H118.148V20.9886H118.318C118.602 20.25 119.019 19.5729 119.568 18.9574C120.117 18.3324 120.799 17.8352 121.614 17.4659C122.428 17.0871 123.375 16.8977 124.455 16.8977C125.894 16.8977 127.262 17.2812 128.56 18.0483C129.866 18.8153 130.927 20.0227 131.741 21.6705C132.565 23.3182 132.977 25.4583 132.977 28.0909C132.977 30.6098 132.584 32.6979 131.798 34.3551C131.022 36.0123 129.98 37.2481 128.673 38.0625C127.376 38.8769 125.951 39.2841 124.398 39.2841C123.375 39.2841 122.461 39.1184 121.656 38.7869C120.861 38.446 120.179 37.9867 119.611 37.4091C119.052 36.822 118.621 36.1591 118.318 35.4205H118.205V47.1818H110.364ZM118.034 28.0909C118.034 29.1515 118.171 30.0701 118.446 30.8466C118.73 31.6136 119.128 32.2102 119.639 32.6364C120.16 33.053 120.78 33.2614 121.5 33.2614C122.22 33.2614 122.83 33.0578 123.332 32.6506C123.844 32.2339 124.232 31.642 124.497 30.875C124.772 30.0985 124.909 29.1705 124.909 28.0909C124.909 27.0114 124.772 26.0881 124.497 25.321C124.232 24.5445 123.844 23.9527 123.332 23.5455C122.83 23.1288 122.22 22.9205 121.5 22.9205C120.78 22.9205 120.16 23.1288 119.639 23.5455C119.128 23.9527 118.73 24.5445 118.446 25.321C118.171 26.0881 118.034 27.0114 118.034 28.0909ZM146.717 39.3977C144.387 39.3977 142.379 38.9527 140.694 38.0625C139.018 37.1629 137.725 35.875 136.816 34.1989C135.916 32.5133 135.467 30.4962 135.467 28.1477C135.467 25.8939 135.921 23.9242 136.83 22.2386C137.739 20.553 139.022 19.2415 140.68 18.304C142.337 17.3665 144.292 16.8977 146.546 16.8977C148.194 16.8977 149.685 17.1534 151.021 17.6648C152.356 18.1761 153.497 18.9195 154.444 19.8949C155.391 20.8608 156.12 22.035 156.631 23.4176C157.143 24.8002 157.398 26.358 157.398 28.0909V29.9091H137.91V25.5909H150.183C150.173 24.9659 150.012 24.4167 149.7 23.9432C149.397 23.4602 148.985 23.0862 148.464 22.821C147.952 22.5464 147.37 22.4091 146.717 22.4091C146.082 22.4091 145.5 22.5464 144.969 22.821C144.439 23.0862 144.013 23.4555 143.691 23.929C143.379 24.4025 143.213 24.9564 143.194 25.5909V30.25C143.194 30.9508 143.341 31.5758 143.634 32.125C143.928 32.6742 144.349 33.1051 144.898 33.4176C145.448 33.7301 146.111 33.8864 146.887 33.8864C147.427 33.8864 147.919 33.8106 148.364 33.6591C148.819 33.5076 149.207 33.2898 149.529 33.0057C149.851 32.7121 150.088 32.3617 150.239 31.9545H157.398C157.152 33.4697 156.57 34.786 155.651 35.9034C154.733 37.0114 153.516 37.8731 152.001 38.4886C150.495 39.0947 148.734 39.3977 146.717 39.3977Z" fill="#27AE60"/>
<g clip-path="url(#clip0_43_109)">
<path d="M11.0215 12.933C14.1472 16.9011 15.8158 21.7944 15.7553 26.8155V28.0141L16.7865 28.6416C18.119 29.4482 19.1127 30.6993 19.5866 32.1669C19.1705 31.8605 18.7352 31.5803 18.2833 31.3278L15.5333 29.7838L15.0391 32.9001C14.9963 33.1755 14.9389 33.4485 14.8672 33.718H7.16151C7.04692 33.3655 6.95382 33.0129 6.86789 32.6463L6.24484 29.8261L3.70968 31.2362C3.28615 31.473 2.87723 31.7344 2.48507 32.0188C2.96824 30.5682 3.94123 29.3242 5.24224 28.4935L6.22336 27.866V26.7521C6.24106 21.7513 7.92967 16.8952 11.0287 12.933H11.0215ZM11.0287 10C10.868 10.0004 10.7128 10.058 10.5918 10.1622L10.5274 10.2186C6.39778 14.7656 4.10466 20.6454 4.08208 26.745C2.32967 27.8643 1.03251 29.5543 0.417263 31.5197C-0.197979 33.485 -0.0921719 35.6007 0.716194 37.4971C1.56776 35.6455 2.99131 34.1058 4.7839 33.0975C4.96368 33.8642 5.2031 34.6161 5.50005 35.3467C5.53771 35.4871 5.62118 35.6114 5.73763 35.7006C5.85408 35.7898 5.99706 35.8388 6.14458 35.8402H16.0847C16.2852 35.8402 16.4857 35.6498 16.586 35.3537C16.8758 34.6592 17.0778 33.9322 17.1875 33.1892C18.9836 34.1932 20.4083 35.7342 21.2553 37.5887C22.1124 35.7017 22.2451 33.5727 21.6287 31.5967C21.0124 29.6206 19.6888 27.9319 17.9037 26.8437C17.9745 20.7082 15.6935 14.7718 11.5157 10.2186C11.4535 10.1501 11.3773 10.0952 11.2922 10.0576C11.2071 10.0199 11.1149 10.0003 11.0215 10H11.0287Z" fill="#6FCF97"/>
<path d="M11.0216 26.1598C10.4715 26.1598 9.93376 25.9995 9.47611 25.699C9.01846 25.3986 8.6614 24.9715 8.44993 24.4716C8.23847 23.9716 8.18206 23.4213 8.28782 22.8898C8.39358 22.3584 8.65678 21.8697 9.04423 21.4853C9.43169 21.1009 9.92606 20.838 10.465 20.7298C11.004 20.6216 11.5634 20.6729 12.0728 20.8773C12.5822 21.0816 13.0188 21.4298 13.3275 21.8781C13.6361 22.3263 13.8031 22.8545 13.8074 23.396V23.396C13.8159 23.7469 13.7542 24.0961 13.6256 24.4235C13.4971 24.751 13.3043 25.0503 13.0582 25.3043C12.8121 25.5583 12.5176 25.7622 12.1915 25.9041C11.8654 26.0461 11.5141 26.1234 11.1576 26.1316C11.1126 26.1387 11.0666 26.1387 11.0216 26.1316V26.1598Z" fill="#6FCF97"/>
<path d="M14.8959 37.5958C14.7167 37.5901 14.5382 37.6198 14.3708 37.683C14.2034 37.7462 14.0505 37.8416 13.9211 37.9638C13.7917 38.086 13.6884 38.2323 13.6172 38.3943C13.546 38.5563 13.5084 38.7307 13.5066 38.9072V43.067C13.5066 43.4297 13.653 43.7776 13.9135 44.0342C14.1741 44.2907 14.5274 44.4348 14.8959 44.4348C15.2644 44.4348 15.6178 44.2907 15.8783 44.0342C16.1389 43.7776 16.2852 43.4297 16.2852 43.067V38.9636C16.291 38.7877 16.2611 38.6126 16.1973 38.4482C16.1336 38.2839 16.0372 38.1337 15.9139 38.0064C15.7906 37.879 15.6428 37.7772 15.4791 37.7067C15.3154 37.6362 15.139 37.5985 14.9604 37.5958H14.8959Z" fill="#5E60CE"/>
<path d="M7.16154 37.5958C6.97931 37.5863 6.797 37.613 6.62546 37.6743C6.45392 37.7356 6.29665 37.8302 6.16302 37.9526C6.02939 38.0749 5.92213 38.2225 5.84761 38.3865C5.77309 38.5505 5.73284 38.7275 5.72925 38.9072V43.067C5.72925 43.4297 5.87562 43.7777 6.13617 44.0342C6.39672 44.2907 6.7501 44.4348 7.11857 44.4348C7.48704 44.4348 7.84042 44.2907 8.10097 44.0342C8.36152 43.7777 8.50789 43.4297 8.50789 43.067V38.9636C8.51362 38.7877 8.48373 38.6126 8.41998 38.4482C8.35623 38.2839 8.25989 38.1337 8.13658 38.0064C8.01326 37.879 7.86544 37.7772 7.70173 37.7067C7.53802 37.6362 7.36169 37.5985 7.18302 37.5958H7.16154Z" fill="#5E60CE"/>
<path d="M10.9213 37.5958C10.7426 37.592 10.5649 37.623 10.3984 37.6869C10.2318 37.7507 10.0797 37.8463 9.95068 37.9681C9.82167 38.0899 9.71828 38.2355 9.64644 38.3966C9.5746 38.5577 9.5357 38.7312 9.53198 38.9072V44.6392C9.53198 45.002 9.67836 45.3499 9.93891 45.6064C10.1995 45.8629 10.5528 46.007 10.9213 46.007C11.2898 46.007 11.6432 45.8629 11.9037 45.6064C12.1643 45.3499 12.3106 45.002 12.3106 44.6392V38.9988C12.3164 38.823 12.2865 38.6478 12.2227 38.4835C12.159 38.3191 12.0626 38.1689 11.9393 38.0416C11.816 37.9143 11.6682 37.8124 11.5045 37.7419C11.3408 37.6714 11.1644 37.6337 10.9858 37.631L10.9213 37.5958Z" fill="#5E60CE"/>
</g>
<defs>
<clipPath id="clip0_43_109">
<rect width="22" height="36" fill="white" transform="translate(0 10)"/>
</clipPath>
</defs>
</svg>
